<svg xmlns="http://www.w3.org/2000/svg" width="23.394" height="35.09" viewBox="0 0 23.394 35.09">
  <path id="Path_4553" data-name="Path 4553" d="M-178.126,1667.087l-8.316,17.683a2.916,2.916,0,0,1-2.627,1.622,2.858,2.858,0,0,1-2.6-1.622l-8.338-17.683a9.578,9.578,0,0,1-.754-4.089,11.69,11.69,0,0,1,11.7-11.7,11.69,11.69,0,0,1,11.7,11.7A9.579,9.579,0,0,1-178.126,1667.087Zm-10.943-9.937a5.86,5.86,0,0,0-5.848,5.849,5.86,5.86,0,0,0,5.848,5.848,5.86,5.86,0,0,0,5.848-5.848A5.86,5.86,0,0,0-189.069,1657.149Z" transform="translate(200.766 -1651.301)" fill="#fff"/>
</svg>
