<svg xmlns="http://www.w3.org/2000/svg" width="29.54" height="23.211" viewBox="0 0 29.54 23.211">
  <path id="Path_4555" data-name="Path 4555" d="M496.4-37.322c-2.572,1.779-5.16,3.558-7.715,5.357-1.07.741-2.884,2.257-4.218,2.257h-.034c-1.334,0-3.147-1.516-4.22-2.257-2.554-1.8-5.143-3.578-7.7-5.357-1.171-.792-2.835-2.655-2.835-4.154,0-1.617.874-3,2.638-3h24.261a2.659,2.659,0,0,1,2.641,2.638A5.951,5.951,0,0,1,496.4-37.322Zm2.82,13.416a2.647,2.647,0,0,1-2.641,2.638H472.316a2.645,2.645,0,0,1-2.638-2.638V-36.995a9.065,9.065,0,0,0,1.664,1.435c2.736,1.863,5.507,3.726,8.194,5.689,1.383,1.021,3.1,2.274,4.895,2.274h.034c1.8,0,3.509-1.253,4.895-2.274,2.687-1.947,5.458-3.827,8.209-5.689a9.676,9.676,0,0,0,1.649-1.435Z" transform="translate(-469.678 44.478)" fill="#3a8e28"/>
</svg>
