<svg xmlns="http://www.w3.org/2000/svg" width="154.5" height="44.886" viewBox="0 0 154.5 44.886">
  <g id="Group_1140" data-name="Group 1140" transform="translate(-467.073 -33.804)">
    <g id="Group_1138" data-name="Group 1138" transform="translate(523.756 49.742)">
      <g id="Group_1137" data-name="Group 1137">
        <path id="Path_4545" data-name="Path 4545" d="M511.806,46.382h6.151a8.6,8.6,0,0,1,3.793.8,6.019,6.019,0,0,1,2.565,2.267,6.944,6.944,0,0,1,0,6.877,6.011,6.011,0,0,1-2.565,2.267,8.6,8.6,0,0,1-3.793.8h-6.151Zm6,10.073a3.777,3.777,0,0,0,2.686-.947,3.9,3.9,0,0,0,0-5.242,3.772,3.772,0,0,0-2.686-.948h-2.323v7.137Z" transform="translate(-511.806 -46.382)" fill="#fff"/>
        <path id="Path_4546" data-name="Path 4546" d="M532.641,46.967a4.589,4.589,0,0,1,0,8.438,7.418,7.418,0,0,1-3.067.585h-2.267v3.4h-3.68V46.382h5.947A7.418,7.418,0,0,1,532.641,46.967Zm-1.58,5.631a1.745,1.745,0,0,0,.576-1.4,1.775,1.775,0,0,0-.576-1.413,2.538,2.538,0,0,0-1.709-.5h-2.044v3.81h2.044A2.571,2.571,0,0,0,531.061,52.6Z" transform="translate(-508.648 -46.382)" fill="#fff"/>
        <path id="Path_4547" data-name="Path 4547" d="M541.148,49.3h-4V46.382H548.8V49.3h-3.976V59.392h-3.68Z" transform="translate(-505.035 -46.382)" fill="#fff"/>
        <path id="Path_4548" data-name="Path 4548" d="M552.826,55.935h-2.007v3.457h-3.68V46.382h5.948a7.426,7.426,0,0,1,3.066.585,4.734,4.734,0,0,1,2.054,6.691,4.461,4.461,0,0,1-1.887,1.645l2.807,4.089h-3.941Zm1.747-6.152a2.537,2.537,0,0,0-1.709-.5h-2.045v3.81h2.045a2.571,2.571,0,0,0,1.709-.493,1.745,1.745,0,0,0,.577-1.4A1.775,1.775,0,0,0,554.573,49.783Z" transform="translate(-502.367 -46.382)" fill="#fff"/>
        <path id="Path_4549" data-name="Path 4549" d="M566.746,56.864h-5.5l-1.021,2.528h-3.756l5.744-13.01h3.624l5.762,13.01h-3.829Zm-1.078-2.713L564,49.987l-1.673,4.164Z" transform="translate(-499.875 -46.382)" fill="#fff"/>
        <path id="Path_4550" data-name="Path 4550" d="M568.935,46.382h6.152a8.6,8.6,0,0,1,3.791.8,6.02,6.02,0,0,1,2.565,2.267,6.944,6.944,0,0,1,0,6.877,6.012,6.012,0,0,1-2.565,2.267,8.6,8.6,0,0,1-3.791.8h-6.152Zm6,10.073a3.774,3.774,0,0,0,2.685-.947,3.9,3.9,0,0,0,0-5.242,3.769,3.769,0,0,0-2.685-.948h-2.324v7.137Z" transform="translate(-496.544 -46.382)" fill="#fff"/>
        <path id="Path_4551" data-name="Path 4551" d="M591.2,56.548v2.843H580.757V46.382h10.2v2.843H584.4v2.193h5.779v2.75H584.4v2.38Z" transform="translate(-493.386 -46.382)" fill="#fff"/>
      </g>
    </g>
    <g id="Group_1139" data-name="Group 1139" transform="translate(467.073 33.804)">
      <path id="Path_4552" data-name="Path 4552" d="M510.231,44.383a20.78,20.78,0,0,0-8.851-7.822A29.7,29.7,0,0,0,488.3,33.8H467.073V59.693h22.413a5.462,5.462,0,0,0,3.752-1.133,4.107,4.107,0,0,0,1.265-3.226,4.179,4.179,0,0,0-1.265-3.249,5.4,5.4,0,0,0-3.752-1.154H476.925V44.264h13.052a15.622,15.622,0,0,1,6.729,1.347,10.1,10.1,0,0,1,4.4,3.846,11.877,11.877,0,0,1,0,11.733,10.159,10.159,0,0,1-4.4,3.826,15.641,15.641,0,0,1-6.729,1.347H475.149V78.69H488.3a29.7,29.7,0,0,0,13.081-2.757,20.771,20.771,0,0,0,8.851-7.822,22.056,22.056,0,0,0,3.143-11.863A22.064,22.064,0,0,0,510.231,44.383Z" transform="translate(-467.073 -33.804)" fill="#2f9837"/>
    </g>
  </g>
</svg>
