<svg xmlns="http://www.w3.org/2000/svg" width="46.3" height="44.886" viewBox="0 0 46.3 44.886">
  <path id="Path_4552" data-name="Path 4552" d="M510.231,44.383a20.78,20.78,0,0,0-8.851-7.822A29.7,29.7,0,0,0,488.3,33.8H467.073V59.693h22.413a5.462,5.462,0,0,0,3.752-1.133,4.107,4.107,0,0,0,1.265-3.226,4.179,4.179,0,0,0-1.265-3.249,5.4,5.4,0,0,0-3.752-1.154H476.925V44.264h13.052a15.622,15.622,0,0,1,6.729,1.347,10.1,10.1,0,0,1,4.4,3.846,11.877,11.877,0,0,1,0,11.733,10.159,10.159,0,0,1-4.4,3.826,15.641,15.641,0,0,1-6.729,1.347H475.149V78.69H488.3a29.7,29.7,0,0,0,13.081-2.757,20.771,20.771,0,0,0,8.851-7.822,22.056,22.056,0,0,0,3.143-11.863A22.064,22.064,0,0,0,510.231,44.383Z" transform="translate(-467.073 -33.804)" fill="#2f9837"/>
</svg>
