<svg id="Component_47_1" data-name="Component 47 – 1" xmlns="http://www.w3.org/2000/svg" width="98" height="98" viewBox="0 0 98 98">
  <rect id="Rectangle_508" data-name="Rectangle 508" width="98" height="98" fill="#3a8e28" opacity="0"/>
  <g id="Group_1143" data-name="Group 1143" transform="translate(-825.905 -6639.978)">
    <path id="Path_4121" data-name="Path 4121" d="M877.36,6678.331a16.545,16.545,0,1,1-11.7,4.846,16.482,16.482,0,0,1,11.7-4.846Zm10.792,5.762a15.274,15.274,0,1,0,4.461,10.783,15.245,15.245,0,0,0-4.461-10.783Z" fill="#3a8e28"/>
    <path id="Path_4122" data-name="Path 4122" d="M878.624,6691.5v-1.356a.709.709,0,0,1,.742-.806h1.9v-2.9h-2.611a3.282,3.282,0,0,0-3.554,3.536v1.521h-1.686v3.38h1.7v8.447H878.5v-8.447H881l.11-1.328.2-2.052Z" fill="#3a8e28" fill-rule="evenodd"/>
  </g>
</svg>
