<svg id="Component_48_1" data-name="Component 48 – 1" xmlns="http://www.w3.org/2000/svg" width="98" height="98" viewBox="0 0 98 98">
  <rect id="Rectangle_507" data-name="Rectangle 507" width="98" height="98" fill="#3a8e28" opacity="0"/>
  <g id="Group_1144" data-name="Group 1144" transform="translate(-926.614 -6639.982)">
    <path id="Path_4124" data-name="Path 4124" d="M976.069,6678.336a16.547,16.547,0,1,1-11.7,4.846,16.484,16.484,0,0,1,11.7-4.846Zm10.782,5.762a15.237,15.237,0,1,0,4.471,10.782,15.164,15.164,0,0,0-4.471-10.782Z" fill="#3a8e28"/>
    <path id="Path_4125" data-name="Path 4125" d="M968.6,6695.036v7.311h3.481v-9.958H968.6Zm14.851.413c-.23-1.888-1.091-3.06-3.638-3.06a3.107,3.107,0,0,0-2.922,1.347h-.046v-1.347h-2.776v9.958h2.9v-4.938c0-1.3.257-2.556,1.851-2.556s1.722,1.484,1.722,2.648v4.846h2.987v-5.469a11.734,11.734,0,0,0-.082-1.429Zm-13.11-8.035a1.741,1.741,0,1,0,1.74,1.741,1.74,1.74,0,0,0-1.74-1.741Z" fill="#3a8e28" fill-rule="evenodd"/>
  </g>
</svg>
